{
	"asset": {
		"generator": "Khronos glTF Blender I/O v1.7.33",
		"version": "2.0"
	},
	"scene": 0,
	"scenes": [
		{
			"name": "Scene",
			"nodes": [0]
		}
	],
	"nodes": [
		{
			"mesh": 0,
			"name": "star",
			"rotation": [0.1077992394566536, 0.1077992394566536, -0.6988414525985718, 0.698841392993927]
		}
	],
	"materials": [
		{
			"doubleSided": true,
			"name": "Material.001",
			"pbrMetallicRoughness": {
				"baseColorFactor": [0.800000011920929, 0.800000011920929, 0.800000011920929, 1],
				"metallicFactor": 0,
				"roughnessFactor": 0.5
			}
		}
	],
	"meshes": [
		{
			"name": "Circle.003",
			"primitives": [
				{
					"attributes": {
						"POSITION": 0,
						"NORMAL": 1,
						"TEXCOORD_0": 2
					},
					"indices": 3,
					"material": 0
				}
			]
		}
	],
	"accessors": [
		{
			"bufferView": 0,
			"componentType": 5126,
			"count": 22,
			"max": [0.9510564804077148, 0.3028928339481354, 0.8090170621871948],
			"min": [-0.9510565400123596, -0.17501738667488098, -1],
			"type": "VEC3"
		},
		{
			"bufferView": 1,
			"componentType": 5126,
			"count": 22,
			"type": "VEC3"
		},
		{
			"bufferView": 2,
			"componentType": 5126,
			"count": 22,
			"type": "VEC2"
		},
		{
			"bufferView": 3,
			"componentType": 5123,
			"count": 120,
			"type": "SCALAR"
		}
	],
	"bufferViews": [
		{
			"buffer": 0,
			"byteLength": 264,
			"byteOffset": 0
		},
		{
			"buffer": 0,
			"byteLength": 264,
			"byteOffset": 264
		},
		{
			"buffer": 0,
			"byteLength": 176,
			"byteOffset": 528
		},
		{
			"buffer": 0,
			"byteLength": 240,
			"byteOffset": 704
		}
	],
	"buffers": [
		{
			"byteLength": 944,
			"uri": "data:application/octet-stream;base64,"
		}
	]
}
